<svg xmlns="http://www.w3.org/2000/svg" id="canvas" viewBox="434.328 407.857 99.225 101.135">
<path d="M 459.02,433.25 C 458.71 434.18, 458.71 435.31, 458.92 437.62 C 459.13 439.92, 459.46 441.47, 460.07 444.77 C 460.68 448.07, 461.25 450.32, 461.98 454.12 C 462.71 457.91, 463.13 460.03, 463.71 463.76 C 464.29 467.48, 464.55 469.39, 464.89 472.75 C 465.23 476.11, 465.23 477.75, 465.40 480.56 C 465.57 483.36, 465.61 484.61, 465.73 486.79 C 465.84 488.97, 465.66 490.49, 465.98 491.46 C 466.31 492.42, 466.82 492.51, 467.34 491.61 C 467.87 490.70, 468.34 489.15, 468.63 486.91 C 468.92 484.66, 468.95 483.27, 468.80 480.37 C 468.65 477.47, 468.32 475.82, 467.89 472.41 C 467.45 469.00, 467.18 467.09, 466.64 463.32 C 466.09 459.55, 465.75 457.41, 465.16 453.57 C 464.57 449.73, 464.27 447.43, 463.68 444.12 C 463.09 440.80, 462.85 439.23, 462.22 437.00 C 461.58 434.77, 461.13 433.72, 460.49 432.97 C 459.85 432.22, 459.34 432.32, 459.02 433.25" style="stroke: #00FF00; fill: #00FF00;"/>
<path d="M 440.81,436.13 C 441.17 435.40, 440.87 434.35, 441.03 432.79 C 441.19 431.22, 441.03 430.20, 441.60 428.30 C 442.17 426.39, 442.38 425.14, 443.89 423.26 C 445.39 421.38, 446.46 420.43, 449.14 418.89 C 451.82 417.34, 453.72 416.56, 457.30 415.53 C 460.89 414.50, 463.08 414.06, 467.07 413.76 C 471.07 413.45, 473.43 413.52, 477.27 414.02 C 481.12 414.51, 483.21 415.06, 486.30 416.22 C 489.39 417.37, 490.81 418.27, 492.74 419.80 C 494.68 421.32, 495.39 422.13, 495.98 423.83 C 496.57 425.54, 496.44 426.48, 495.69 428.30 C 494.95 430.12, 494.02 431.08, 492.26 432.93 C 490.50 434.77, 489.10 435.84, 486.89 437.52 C 484.67 439.21, 483.11 439.96, 481.19 441.36 C 479.27 442.76, 478.19 443.38, 477.30 444.52 C 476.41 445.66, 476.20 446.21, 476.73 447.04 C 477.25 447.88, 477.91 448.24, 479.91 448.71 C 481.91 449.18, 483.45 449.07, 486.74 449.39 C 490.03 449.70, 492.33 449.61, 496.36 450.28 C 500.40 450.96, 502.89 451.45, 506.91 452.78 C 510.94 454.10, 513.17 455.02, 516.48 456.93 C 519.79 458.83, 521.36 460.04, 523.45 462.31 C 525.54 464.58, 526.24 465.86, 526.95 468.27 C 527.65 470.69, 527.64 471.88, 526.96 474.39 C 526.28 476.90, 525.62 478.24, 523.54 480.83 C 521.47 483.43, 519.99 484.85, 516.59 487.36 C 513.19 489.88, 510.99 491.20, 506.55 493.40 C 502.11 495.59, 499.46 496.62, 494.40 498.32 C 489.34 500.03, 486.49 500.75, 481.26 501.93 C 476.03 503.10, 470.78 503.38, 468.24 504.19 C 465.69 505.00, 465.85 506.05, 468.54 505.99 C 471.23 505.92, 476.38 505.00, 481.69 503.86 C 486.99 502.72, 489.88 501.98, 495.05 500.30 C 500.22 498.61, 502.93 497.61, 507.54 495.45 C 512.15 493.28, 514.44 492.02, 518.10 489.46 C 521.75 486.91, 523.43 485.53, 525.80 482.68 C 528.18 479.82, 529.15 478.25, 529.96 475.19 C 530.77 472.14, 530.76 470.37, 529.87 467.41 C 528.98 464.44, 527.94 462.94, 525.53 460.38 C 523.12 457.82, 521.36 456.64, 517.81 454.61 C 514.27 452.58, 511.96 451.69, 507.79 450.21 C 503.62 448.74, 501.10 448.19, 496.97 447.23 C 492.85 446.27, 490.52 445.81, 487.17 445.41 C 483.81 445.01, 482.16 445.04, 480.18 445.21 C 478.20 445.37, 477.59 445.97, 477.29 446.23 C 476.99 446.50, 477.46 446.83, 478.67 446.54 C 479.88 446.25, 481.19 445.93, 483.34 444.78 C 485.49 443.63, 487.03 442.65, 489.41 440.79 C 491.79 438.93, 493.35 437.80, 495.21 435.50 C 497.07 433.21, 498.02 431.81, 498.71 429.30 C 499.39 426.78, 499.45 425.33, 498.65 422.93 C 497.86 420.54, 497.02 419.22, 494.75 417.33 C 492.47 415.44, 490.72 414.67, 487.29 413.46 C 483.87 412.26, 481.69 411.80, 477.61 411.31 C 473.52 410.82, 471.09 410.74, 466.88 411.01 C 462.67 411.29, 460.41 411.70, 456.54 412.68 C 452.67 413.66, 450.67 414.32, 447.53 415.93 C 444.40 417.54, 442.83 418.48, 440.87 420.74 C 438.92 423.00, 438.40 424.77, 437.75 427.21 C 437.10 429.65, 437.32 431.08, 437.62 432.93 C 437.92 434.78, 438.61 435.81, 439.25 436.46 C 439.89 437.10, 440.46 436.87, 440.81 436.13" style="stroke: #00FF00; fill: #00FF00;"/>
</svg>